<?xml version="1.0" standalone="no"?>
<svg xmlns:xlink="http://www.w3.org/1999/xlink" id="wave" style="transform:rotate(0deg); transition: 0.3s" viewBox="0 0 1140 490" version="1.1" xmlns="http://www.w3.org/2000/svg"><defs><linearGradient id="sw-gradient-0" x1="0" x2="0" y1="1" y2="0"><stop stop-color="rgba(11, 255, 237, 1)" offset="0%"/><stop stop-color="rgba(11, 255, 237, 1)" offset="100%"/></linearGradient></defs><path style="transform:translate(0, 0px); opacity:1" fill="url(#sw-gradient-0)" d="M0,0L40,24.5C80,49,160,98,240,122.5C320,147,400,147,480,171.5C560,196,640,245,720,245C800,245,880,196,960,155.2C1040,114,1120,82,1200,73.5C1280,65,1360,82,1440,114.3C1520,147,1600,196,1680,187.8C1760,180,1840,114,1920,130.7C2000,147,2080,245,2160,236.8C2240,229,2320,114,2400,106.2C2480,98,2560,196,2640,236.8C2720,278,2800,261,2880,261.3C2960,261,3040,278,3120,310.3C3200,343,3280,392,3360,383.8C3440,376,3520,310,3600,285.8C3680,261,3760,278,3840,269.5C3920,261,4000,229,4080,253.2C4160,278,4240,359,4320,359.3C4400,359,4480,278,4560,261.3C4640,245,4720,294,4800,277.7C4880,261,4960,180,5040,196C5120,212,5200,327,5280,359.3C5360,392,5440,343,5520,343C5600,343,5680,392,5720,416.5L5760,441L5760,490L5720,490C5680,490,5600,490,5520,490C5440,490,5360,490,5280,490C5200,490,5120,490,5040,490C4960,490,4880,490,4800,490C4720,490,4640,490,4560,490C4480,490,4400,490,4320,490C4240,490,4160,490,4080,490C4000,490,3920,490,3840,490C3760,490,3680,490,3600,490C3520,490,3440,490,3360,490C3280,490,3200,490,3120,490C3040,490,2960,490,2880,490C2800,490,2720,490,2640,490C2560,490,2480,490,2400,490C2320,490,2240,490,2160,490C2080,490,2000,490,1920,490C1840,490,1760,490,1680,490C1600,490,1520,490,1440,490C1360,490,1280,490,1200,490C1120,490,1040,490,960,490C880,490,800,490,720,490C640,490,560,490,480,490C400,490,320,490,240,490C160,490,80,490,40,490L0,490Z"/></svg>