<?xml version="1.0" standalone="no"?>
<svg xmlns:xlink="http://www.w3.org/1999/xlink" id="wave" style="transform:rotate(0deg); transition: 0.3s" viewBox="0 0 1440 490" version="1.1" xmlns="http://www.w3.org/2000/svg"><defs><linearGradient id="sw-gradient-0" x1="0" x2="0" y1="1" y2="0"><stop stop-color="rgba(11, 255, 237, 1)" offset="0%"/><stop stop-color="rgba(11, 255, 237, 1)" offset="100%"/></linearGradient></defs><path style="transform:translate(0, 0px); opacity:1" fill="url(#sw-gradient-0)" d="M0,245L48,245C96,245,192,245,288,220.5C384,196,480,147,576,171.5C672,196,768,294,864,277.7C960,261,1056,131,1152,122.5C1248,114,1344,229,1440,302.2C1536,376,1632,408,1728,383.8C1824,359,1920,278,2016,228.7C2112,180,2208,163,2304,204.2C2400,245,2496,343,2592,359.3C2688,376,2784,310,2880,245C2976,180,3072,114,3168,73.5C3264,33,3360,16,3456,49C3552,82,3648,163,3744,212.3C3840,261,3936,278,4032,285.8C4128,294,4224,294,4320,310.3C4416,327,4512,359,4608,326.7C4704,294,4800,196,4896,204.2C4992,212,5088,327,5184,351.2C5280,376,5376,310,5472,236.8C5568,163,5664,82,5760,114.3C5856,147,5952,294,6048,310.3C6144,327,6240,212,6336,171.5C6432,131,6528,163,6624,179.7C6720,196,6816,196,6864,196L6912,196L6912,490L6864,490C6816,490,6720,490,6624,490C6528,490,6432,490,6336,490C6240,490,6144,490,6048,490C5952,490,5856,490,5760,490C5664,490,5568,490,5472,490C5376,490,5280,490,5184,490C5088,490,4992,490,4896,490C4800,490,4704,490,4608,490C4512,490,4416,490,4320,490C4224,490,4128,490,4032,490C3936,490,3840,490,3744,490C3648,490,3552,490,3456,490C3360,490,3264,490,3168,490C3072,490,2976,490,2880,490C2784,490,2688,490,2592,490C2496,490,2400,490,2304,490C2208,490,2112,490,2016,490C1920,490,1824,490,1728,490C1632,490,1536,490,1440,490C1344,490,1248,490,1152,490C1056,490,960,490,864,490C768,490,672,490,576,490C480,490,384,490,288,490C192,490,96,490,48,490L0,490Z"/></svg>